<svg width="62" height="24" viewBox="0 0 62 24" fill="none" xmlns="http://www.w3.org/2000/svg">
<path d="M52.2523 6.64357H51.3686V5.3685C51.3685 2.40813 48.9602 0 45.9999 0C43.0397 0 40.6312 2.40847 40.6312 5.3685V6.64357H39.7475C38.3106 6.64357 37.1416 7.81261 37.1416 9.24944V21.3941C37.1416 22.8313 38.3106 24 39.7475 24H52.2522C53.6891 24 54.8581 22.8312 54.8581 21.3941V9.24944C54.8581 7.81261 53.6891 6.64357 52.2523 6.64357ZM42.3312 5.3685C42.3312 3.34569 43.9769 1.70005 45.9999 1.70005C48.0227 1.70005 49.6684 3.34569 49.6684 5.3685V6.64357H42.3312V5.3685ZM53.1582 21.3941C53.1582 21.894 52.7516 22.2999 52.2523 22.2999H39.7474C39.2479 22.2999 38.8415 21.8936 38.8415 21.3941V9.24944C38.8415 8.74994 39.2479 8.34361 39.7474 8.34361H40.6311V9.53567C40.3579 9.77363 40.1817 10.1202 40.1817 10.5112C40.1817 11.2289 40.7635 11.8109 41.4812 11.8109C42.1986 11.8109 42.7806 11.2289 42.7806 10.5112C42.7806 10.1205 42.6043 9.77397 42.3312 9.53567V8.34361H49.6684V9.53567C49.3952 9.77363 49.219 10.1202 49.219 10.5112C49.219 11.2289 49.8007 11.8109 50.5184 11.8109C51.2361 11.8109 51.8179 11.2289 51.8179 10.5112C51.8179 10.1205 51.6416 9.77363 51.3685 9.53567V8.34361H52.2522C52.7517 8.34361 53.1581 8.74994 53.1581 9.24944V21.3941H53.1582Z" fill="#454545"/>
<circle cx="55" cy="8" r="7" fill="#F6623E"/>
<path d="M53.25 8.5C53.25 8.90667 53.29 9.28333 53.37 9.63C53.45 9.97 53.5667 10.2667 53.72 10.52C53.8733 10.7667 54.0567 10.96 54.27 11.1C54.49 11.2333 54.7333 11.3 55 11.3C55.2733 11.3 55.5167 11.2333 55.73 11.1C55.9433 10.96 56.1267 10.7667 56.28 10.52C56.4333 10.2667 56.55 9.97 56.63 9.63C56.71 9.28333 56.75 8.90667 56.75 8.5C56.75 8.09333 56.71 7.72 56.63 7.38C56.55 7.03333 56.4333 6.73667 56.28 6.49C56.1267 6.23667 55.9433 6.04333 55.73 5.91C55.5167 5.77 55.2733 5.7 55 5.7C54.7333 5.7 54.49 5.77 54.27 5.91C54.0567 6.04333 53.8733 6.23667 53.72 6.49C53.5667 6.73667 53.45 7.03333 53.37 7.38C53.29 7.72 53.25 8.09333 53.25 8.5ZM52.4 8.5C52.4 7.8 52.51 7.18 52.73 6.64C52.95 6.1 53.2533 5.67667 53.64 5.37C54.0333 5.05667 54.4867 4.9 55 4.9C55.5133 4.9 55.9633 5.05667 56.35 5.37C56.7433 5.67667 57.05 6.1 57.27 6.64C57.49 7.18 57.6 7.8 57.6 8.5C57.6 9.2 57.49 9.82 57.27 10.36C57.05 10.9 56.7433 11.3267 56.35 11.64C55.9633 11.9467 55.5133 12.1 55 12.1C54.4867 12.1 54.0333 11.9467 53.64 11.64C53.2533 11.3267 52.95 10.9 52.73 10.36C52.51 9.82 52.4 9.2 52.4 8.5Z" fill="white"/>
<g clip-path="url(#clip0_10669_179)">
<path d="M21.7312 21.4352L15.475 15.179C16.6868 13.6821 17.4165 11.78 17.4165 9.70842C17.4165 4.90696 13.5097 1.00015 8.70822 1.00015C3.90677 1.00015 0 4.90692 0 9.70837C0 14.5098 3.90681 18.4166 8.70826 18.4166C10.7799 18.4166 12.682 17.687 14.1789 16.4752L20.4351 22.7313C20.6138 22.9101 20.8484 22.9999 21.0831 22.9999C21.3178 22.9999 21.5525 22.9101 21.7312 22.7313C22.0896 22.3729 22.0896 21.7936 21.7312 21.4352ZM8.70826 16.5833C4.91695 16.5833 1.83333 13.4997 1.83333 9.70837C1.83333 5.91706 4.91695 2.83344 8.70826 2.83344C12.4996 2.83344 15.5832 5.91706 15.5832 9.70837C15.5832 13.4997 12.4995 16.5833 8.70826 16.5833Z" fill="#454545"/>
</g>
<defs>
<clipPath id="clip0_10669_179">
<rect width="22" height="22" fill="white" transform="translate(0 1)"/>
</clipPath>
</defs>
</svg>
